<mxfile host="app.diagrams.net" modified="2022-08-12T09:04:57.680Z" agent="5.0 (Windows NT 10.0; Win64; x64) AppleWebKit/537.36 (KHTML, like Gecko) Chrome/104.0.0.0 Safari/537.36" etag="dHI2tFTuzEOf2nKlgkvm" version="17.2.4" type="github">
  <diagram id="_F8HX83ai7Tczh-qBoL3" name="Page-1">
    <mxGraphModel dx="1264" dy="565" grid="1" gridSize="10" guides="1" tooltips="1" connect="1" arrows="1" fold="1" page="1" pageScale="1" pageWidth="827" pageHeight="1169" math="0" shadow="0">
      <root>
        <mxCell id="0" />
        <mxCell id="1" parent="0" />
        <mxCell id="uzddMzGlyc6PxLjfEzjp-2" value="User" style="shape=umlActor;verticalLabelPosition=bottom;verticalAlign=top;html=1;outlineConnect=0;" vertex="1" parent="1">
          <mxGeometry x="140" y="210" width="30" height="60" as="geometry" />
        </mxCell>
        <mxCell id="uzddMzGlyc6PxLjfEzjp-9" value="" style="rounded=0;whiteSpace=wrap;html=1;" vertex="1" parent="1">
          <mxGeometry x="270" y="50" width="550" height="450" as="geometry" />
        </mxCell>
        <mxCell id="uzddMzGlyc6PxLjfEzjp-1" value="" style="aspect=fixed;html=1;points=[];align=center;image;fontSize=12;image=img/lib/azure2/general/Dev_Console.svg;" vertex="1" parent="1">
          <mxGeometry x="237" y="214" width="65" height="52" as="geometry" />
        </mxCell>
        <mxCell id="uzddMzGlyc6PxLjfEzjp-6" value="InputManager" style="ellipse;whiteSpace=wrap;html=1;" vertex="1" parent="1">
          <mxGeometry x="440" y="245" width="140" height="60" as="geometry" />
        </mxCell>
        <mxCell id="uzddMzGlyc6PxLjfEzjp-7" value="ErrorHandler" style="ellipse;whiteSpace=wrap;html=1;" vertex="1" parent="1">
          <mxGeometry x="330" y="390" width="100" height="50" as="geometry" />
        </mxCell>
        <mxCell id="uzddMzGlyc6PxLjfEzjp-10" value="RNG_OOP" style="text;html=1;strokeColor=none;fillColor=none;align=center;verticalAlign=middle;whiteSpace=wrap;rounded=0;" vertex="1" parent="1">
          <mxGeometry x="280" y="60" width="80" height="30" as="geometry" />
        </mxCell>
        <mxCell id="uzddMzGlyc6PxLjfEzjp-11" value="IO" style="text;html=1;strokeColor=none;fillColor=none;align=center;verticalAlign=middle;whiteSpace=wrap;rounded=0;" vertex="1" parent="1">
          <mxGeometry x="190" y="230" width="30" as="geometry" />
        </mxCell>
        <mxCell id="uzddMzGlyc6PxLjfEzjp-12" value="" style="endArrow=classic;startArrow=classic;html=1;rounded=0;" edge="1" parent="1" target="uzddMzGlyc6PxLjfEzjp-1">
          <mxGeometry width="50" height="50" relative="1" as="geometry">
            <mxPoint x="170" y="240" as="sourcePoint" />
            <mxPoint x="250" y="290" as="targetPoint" />
          </mxGeometry>
        </mxCell>
        <mxCell id="uzddMzGlyc6PxLjfEzjp-13" value="" style="endArrow=classic;html=1;rounded=0;entryX=0;entryY=0.5;entryDx=0;entryDy=0;exitX=0.96;exitY=0.558;exitDx=0;exitDy=0;exitPerimeter=0;" edge="1" parent="1" source="uzddMzGlyc6PxLjfEzjp-1" target="uzddMzGlyc6PxLjfEzjp-6">
          <mxGeometry width="50" height="50" relative="1" as="geometry">
            <mxPoint x="330" y="270" as="sourcePoint" />
            <mxPoint x="380" y="220" as="targetPoint" />
          </mxGeometry>
        </mxCell>
        <mxCell id="uzddMzGlyc6PxLjfEzjp-32" value="Send input" style="edgeLabel;html=1;align=center;verticalAlign=middle;resizable=0;points=[];" vertex="1" connectable="0" parent="uzddMzGlyc6PxLjfEzjp-13">
          <mxGeometry x="-0.1843" relative="1" as="geometry">
            <mxPoint as="offset" />
          </mxGeometry>
        </mxCell>
        <mxCell id="uzddMzGlyc6PxLjfEzjp-14" value="" style="endArrow=classic;html=1;rounded=0;entryX=0.728;entryY=0.1;entryDx=0;entryDy=0;entryPerimeter=0;exitX=0.209;exitY=0.94;exitDx=0;exitDy=0;exitPerimeter=0;" edge="1" parent="1" source="uzddMzGlyc6PxLjfEzjp-6" target="uzddMzGlyc6PxLjfEzjp-7">
          <mxGeometry width="50" height="50" relative="1" as="geometry">
            <mxPoint x="500" y="310" as="sourcePoint" />
            <mxPoint x="410" y="350" as="targetPoint" />
          </mxGeometry>
        </mxCell>
        <mxCell id="uzddMzGlyc6PxLjfEzjp-15" value="Unrecognised inputs" style="edgeLabel;html=1;align=center;verticalAlign=middle;resizable=0;points=[];" vertex="1" connectable="0" parent="uzddMzGlyc6PxLjfEzjp-14">
          <mxGeometry x="-0.3048" y="-3" relative="1" as="geometry">
            <mxPoint x="-2" y="8" as="offset" />
          </mxGeometry>
        </mxCell>
        <mxCell id="uzddMzGlyc6PxLjfEzjp-16" value="NumberGenerator" style="ellipse;whiteSpace=wrap;html=1;" vertex="1" parent="1">
          <mxGeometry x="690" y="180" width="120" height="55" as="geometry" />
        </mxCell>
        <mxCell id="uzddMzGlyc6PxLjfEzjp-18" value="Entrypoint&lt;br&gt;Starter" style="ellipse;whiteSpace=wrap;html=1;fillColor=#B3FF66;" vertex="1" parent="1">
          <mxGeometry x="640" y="380" width="90" height="60" as="geometry" />
        </mxCell>
        <mxCell id="uzddMzGlyc6PxLjfEzjp-19" value="" style="rounded=0;whiteSpace=wrap;html=1;" vertex="1" parent="1">
          <mxGeometry x="850" y="50" width="180" height="150" as="geometry" />
        </mxCell>
        <mxCell id="uzddMzGlyc6PxLjfEzjp-20" value="System" style="text;html=1;strokeColor=none;fillColor=none;align=center;verticalAlign=middle;whiteSpace=wrap;rounded=0;" vertex="1" parent="1">
          <mxGeometry x="860" y="60" width="70" height="30" as="geometry" />
        </mxCell>
        <mxCell id="uzddMzGlyc6PxLjfEzjp-21" value="Random" style="ellipse;whiteSpace=wrap;html=1;" vertex="1" parent="1">
          <mxGeometry x="910" y="90" width="90" height="40" as="geometry" />
        </mxCell>
        <mxCell id="uzddMzGlyc6PxLjfEzjp-22" value="Return Info/Help" style="endArrow=classic;html=1;rounded=0;exitX=0;exitY=0;exitDx=0;exitDy=0;entryX=0.763;entryY=1.081;entryDx=0;entryDy=0;entryPerimeter=0;" edge="1" parent="1" source="uzddMzGlyc6PxLjfEzjp-7" target="uzddMzGlyc6PxLjfEzjp-1">
          <mxGeometry width="50" height="50" relative="1" as="geometry">
            <mxPoint x="330" y="260" as="sourcePoint" />
            <mxPoint x="310" y="250" as="targetPoint" />
          </mxGeometry>
        </mxCell>
        <mxCell id="uzddMzGlyc6PxLjfEzjp-25" value="" style="endArrow=classic;html=1;rounded=0;exitX=0;exitY=1;exitDx=0;exitDy=0;entryX=1;entryY=0;entryDx=0;entryDy=0;" edge="1" parent="1" source="uzddMzGlyc6PxLjfEzjp-21" target="uzddMzGlyc6PxLjfEzjp-16">
          <mxGeometry width="50" height="50" relative="1" as="geometry">
            <mxPoint x="910" y="270" as="sourcePoint" />
            <mxPoint x="960" y="220" as="targetPoint" />
          </mxGeometry>
        </mxCell>
        <mxCell id="uzddMzGlyc6PxLjfEzjp-26" value="Init new Random&lt;br&gt;1-100" style="edgeLabel;html=1;align=center;verticalAlign=middle;resizable=0;points=[];" vertex="1" connectable="0" parent="uzddMzGlyc6PxLjfEzjp-25">
          <mxGeometry x="0.3219" y="4" relative="1" as="geometry">
            <mxPoint x="111" y="-10" as="offset" />
          </mxGeometry>
        </mxCell>
        <mxCell id="uzddMzGlyc6PxLjfEzjp-27" value="" style="endArrow=classic;html=1;rounded=0;entryX=0;entryY=1;entryDx=0;entryDy=0;exitX=0.98;exitY=0.367;exitDx=0;exitDy=0;exitPerimeter=0;" edge="1" parent="1" source="uzddMzGlyc6PxLjfEzjp-6" target="uzddMzGlyc6PxLjfEzjp-16">
          <mxGeometry width="50" height="50" relative="1" as="geometry">
            <mxPoint x="580" y="280" as="sourcePoint" />
            <mxPoint x="600" y="310" as="targetPoint" />
          </mxGeometry>
        </mxCell>
        <mxCell id="uzddMzGlyc6PxLjfEzjp-28" value="Generate public int" style="edgeLabel;html=1;align=center;verticalAlign=middle;resizable=0;points=[];" vertex="1" connectable="0" parent="uzddMzGlyc6PxLjfEzjp-27">
          <mxGeometry x="0.1516" y="-2" relative="1" as="geometry">
            <mxPoint x="-22" y="10" as="offset" />
          </mxGeometry>
        </mxCell>
        <mxCell id="uzddMzGlyc6PxLjfEzjp-29" value="HintManager" style="ellipse;whiteSpace=wrap;html=1;fillColor=#FFFFFF;" vertex="1" parent="1">
          <mxGeometry x="540" y="100" width="120" height="50" as="geometry" />
        </mxCell>
        <mxCell id="uzddMzGlyc6PxLjfEzjp-33" value="" style="endArrow=classic;html=1;rounded=0;entryX=0.5;entryY=1;entryDx=0;entryDy=0;exitX=0.654;exitY=-0.02;exitDx=0;exitDy=0;exitPerimeter=0;" edge="1" parent="1" source="uzddMzGlyc6PxLjfEzjp-6" target="uzddMzGlyc6PxLjfEzjp-29">
          <mxGeometry width="50" height="50" relative="1" as="geometry">
            <mxPoint x="570" y="360" as="sourcePoint" />
            <mxPoint x="620" y="310" as="targetPoint" />
          </mxGeometry>
        </mxCell>
        <mxCell id="uzddMzGlyc6PxLjfEzjp-34" value="Wrong guess" style="edgeLabel;html=1;align=center;verticalAlign=middle;resizable=0;points=[];" vertex="1" connectable="0" parent="uzddMzGlyc6PxLjfEzjp-33">
          <mxGeometry x="-0.3796" y="2" relative="1" as="geometry">
            <mxPoint x="-6" y="-16" as="offset" />
          </mxGeometry>
        </mxCell>
        <mxCell id="uzddMzGlyc6PxLjfEzjp-35" value="" style="endArrow=classic;html=1;rounded=0;entryX=0.997;entryY=0.265;entryDx=0;entryDy=0;entryPerimeter=0;exitX=0;exitY=1;exitDx=0;exitDy=0;" edge="1" parent="1" source="uzddMzGlyc6PxLjfEzjp-29" target="uzddMzGlyc6PxLjfEzjp-1">
          <mxGeometry width="50" height="50" relative="1" as="geometry">
            <mxPoint x="560" y="210" as="sourcePoint" />
            <mxPoint x="610" y="160" as="targetPoint" />
          </mxGeometry>
        </mxCell>
        <mxCell id="uzddMzGlyc6PxLjfEzjp-36" value="Send appropriate hint" style="edgeLabel;html=1;align=center;verticalAlign=middle;resizable=0;points=[];" vertex="1" connectable="0" parent="uzddMzGlyc6PxLjfEzjp-35">
          <mxGeometry x="0.1676" y="-1" relative="1" as="geometry">
            <mxPoint x="22" y="-1" as="offset" />
          </mxGeometry>
        </mxCell>
        <mxCell id="uzddMzGlyc6PxLjfEzjp-39" value="" style="endArrow=classic;html=1;rounded=0;exitX=0;exitY=0.5;exitDx=0;exitDy=0;" edge="1" parent="1" source="uzddMzGlyc6PxLjfEzjp-16">
          <mxGeometry width="50" height="50" relative="1" as="geometry">
            <mxPoint x="650" y="410" as="sourcePoint" />
            <mxPoint x="550" y="250" as="targetPoint" />
          </mxGeometry>
        </mxCell>
        <mxCell id="uzddMzGlyc6PxLjfEzjp-40" value="Get current int" style="edgeLabel;html=1;align=center;verticalAlign=middle;resizable=0;points=[];" vertex="1" connectable="0" parent="uzddMzGlyc6PxLjfEzjp-39">
          <mxGeometry x="0.4458" relative="1" as="geometry">
            <mxPoint x="40" y="-13" as="offset" />
          </mxGeometry>
        </mxCell>
        <mxCell id="uzddMzGlyc6PxLjfEzjp-41" value="" style="endArrow=classic;html=1;rounded=0;exitX=0;exitY=0;exitDx=0;exitDy=0;entryX=1;entryY=1;entryDx=0;entryDy=0;" edge="1" parent="1" source="uzddMzGlyc6PxLjfEzjp-18" target="uzddMzGlyc6PxLjfEzjp-6">
          <mxGeometry width="50" height="50" relative="1" as="geometry">
            <mxPoint x="580" y="350" as="sourcePoint" />
            <mxPoint x="630" y="300" as="targetPoint" />
          </mxGeometry>
        </mxCell>
        <mxCell id="uzddMzGlyc6PxLjfEzjp-42" value="Start input listener" style="edgeLabel;html=1;align=center;verticalAlign=middle;resizable=0;points=[];" vertex="1" connectable="0" parent="uzddMzGlyc6PxLjfEzjp-41">
          <mxGeometry x="0.4315" y="-3" relative="1" as="geometry">
            <mxPoint x="17" y="22" as="offset" />
          </mxGeometry>
        </mxCell>
        <mxCell id="uzddMzGlyc6PxLjfEzjp-43" value="TryCounter" style="ellipse;whiteSpace=wrap;html=1;fillColor=#FFFFFF;" vertex="1" parent="1">
          <mxGeometry x="340" y="90" width="100" height="50" as="geometry" />
        </mxCell>
        <mxCell id="uzddMzGlyc6PxLjfEzjp-44" value="" style="endArrow=classic;html=1;rounded=0;entryX=1;entryY=0;entryDx=0;entryDy=0;exitX=0;exitY=0;exitDx=0;exitDy=0;" edge="1" parent="1" source="uzddMzGlyc6PxLjfEzjp-29" target="uzddMzGlyc6PxLjfEzjp-43">
          <mxGeometry width="50" height="50" relative="1" as="geometry">
            <mxPoint x="500" y="150" as="sourcePoint" />
            <mxPoint x="550" y="100" as="targetPoint" />
          </mxGeometry>
        </mxCell>
        <mxCell id="uzddMzGlyc6PxLjfEzjp-45" value="Count up" style="edgeLabel;html=1;align=center;verticalAlign=middle;resizable=0;points=[];" vertex="1" connectable="0" parent="uzddMzGlyc6PxLjfEzjp-44">
          <mxGeometry x="0.1653" relative="1" as="geometry">
            <mxPoint x="19" y="-9" as="offset" />
          </mxGeometry>
        </mxCell>
        <mxCell id="uzddMzGlyc6PxLjfEzjp-46" value="" style="endArrow=classic;html=1;rounded=0;exitX=0;exitY=1;exitDx=0;exitDy=0;entryX=0.84;entryY=0.019;entryDx=0;entryDy=0;entryPerimeter=0;" edge="1" parent="1" source="uzddMzGlyc6PxLjfEzjp-43" target="uzddMzGlyc6PxLjfEzjp-1">
          <mxGeometry width="50" height="50" relative="1" as="geometry">
            <mxPoint x="270" y="190" as="sourcePoint" />
            <mxPoint x="320" y="140" as="targetPoint" />
          </mxGeometry>
        </mxCell>
        <mxCell id="uzddMzGlyc6PxLjfEzjp-48" value="Output tries on finish" style="edgeLabel;html=1;align=center;verticalAlign=middle;resizable=0;points=[];" vertex="1" connectable="0" parent="uzddMzGlyc6PxLjfEzjp-46">
          <mxGeometry x="-0.4016" y="-1" relative="1" as="geometry">
            <mxPoint as="offset" />
          </mxGeometry>
        </mxCell>
        <mxCell id="uzddMzGlyc6PxLjfEzjp-50" value="" style="endArrow=classic;html=1;rounded=0;entryX=1;entryY=0.5;entryDx=0;entryDy=0;exitX=0;exitY=0.5;exitDx=0;exitDy=0;" edge="1" parent="1" source="uzddMzGlyc6PxLjfEzjp-29" target="uzddMzGlyc6PxLjfEzjp-43">
          <mxGeometry width="50" height="50" relative="1" as="geometry">
            <mxPoint x="550" y="120" as="sourcePoint" />
            <mxPoint x="510" y="120" as="targetPoint" />
          </mxGeometry>
        </mxCell>
        <mxCell id="uzddMzGlyc6PxLjfEzjp-51" value="signal correct" style="edgeLabel;html=1;align=center;verticalAlign=middle;resizable=0;points=[];" vertex="1" connectable="0" parent="uzddMzGlyc6PxLjfEzjp-50">
          <mxGeometry x="0.4012" y="3" relative="1" as="geometry">
            <mxPoint x="10" y="9" as="offset" />
          </mxGeometry>
        </mxCell>
      </root>
    </mxGraphModel>
  </diagram>
</mxfile>
